<svg xmlns="http://www.w3.org/2000/svg" viewBox="0 0 160 90" preserveAspectRatio="xMidYMid slice" role="img" aria-label="Anime visual novel sample">
  <defs>
    <linearGradient id="abg" x1="0" y1="0" x2="0" y2="1">
      <stop offset="0%" stop-color="#bfe9ef"/>
      <stop offset="100%" stop-color="#7fbfd6"/>
    </linearGradient>
  </defs>
  <rect width="160" height="90" fill="url(#abg)"/>
  <path d="M80 12 C52 12 44 40 46 78 L60 78 C56 46 60 30 80 30 C100 30 104 46 100 78 L114 78 C116 40 108 12 80 12 Z" fill="#3a4a8a"/>
  <path d="M64 34 C64 56 72 70 80 70 C88 70 96 56 96 34 C96 26 90 22 80 22 C70 22 64 26 64 34 Z" fill="#ffe7d2"/>
  <path d="M64 34 C64 50 70 64 78 68 C72 60 70 46 70 34 Z" fill="#f3c9b0"/>
  <path d="M62 30 C66 22 94 22 98 30 C92 28 88 34 80 33 C72 34 68 28 62 30 Z" fill="#3a4a8a"/>
  <ellipse cx="74" cy="42" rx="6" ry="8" fill="#fff"/>
  <ellipse cx="74" cy="43" rx="4.5" ry="6.5" fill="#1f8fb0"/>
  <circle cx="74" cy="44" r="2.4" fill="#10303a"/>
  <circle cx="76" cy="40" r="1.6" fill="#fff"/>
  <ellipse cx="92" cy="42" rx="5" ry="7" fill="#fff"/>
  <ellipse cx="92" cy="43" rx="3.6" ry="5.6" fill="#1f8fb0"/>
  <circle cx="92" cy="44" r="2" fill="#10303a"/>
  <path d="M68 33 q6 -3 11 0" stroke="#2a356a" stroke-width="1.4" fill="none" stroke-linecap="round"/>
  <path d="M88 33 q4 -2 8 0" stroke="#2a356a" stroke-width="1.4" fill="none" stroke-linecap="round"/>
  <path d="M78 58 q4 2 7 0" stroke="#c8746a" stroke-width="1.4" fill="none" stroke-linecap="round"/>
</svg>
