<svg xmlns="http://www.w3.org/2000/svg" viewBox="0 0 200 300" width="200" height="300">
  <defs>
    <g id="b-half">
      <path d="M100,44 C112,40 121,29 129,37 C121,47 131,53 127,61 C151,45 178,50 190,72 C198,89 183,99 168,94 C150,88 139,98 133,89 C127,98 131,112 123,118 C125,142 119,162 121,190 C122,212 113,224 109,242 C107,256 103,263 100,274 Z"/>
      <path d="M138,116 C150,120 160,132 156,150 C152,164 140,160 136,146 C133,133 130,122 138,116 Z"/>
      <circle cx="176" cy="112" r="4.5"/>
    </g>
  </defs>
  <g fill="currentColor">
    <use href="#b-half"/>
    <use href="#b-half" transform="matrix(-1 0 0 1 200 0)"/>
  </g>
</svg>
